<!-- icon666.com - MILLIONS vector ICONS FREE --><svg version="1.1" id="Layer_1" xmlns="http://www.w3.org/2000/svg" xmlns:xlink="http://www.w3.org/1999/xlink" x="0px" y="0px" viewBox="0 0 480 480" style="enable-background:new 0 0 480 480;" xml:space="preserve"><g><path style="fill:#EFD01B;" d="M200,20c-35.288,0-64,28.712-64,64s28.712,64,64,64s64-28.712,64-64S235.288,20,200,20z M200,132 c-26.472,0-48-21.528-48-48s21.528-48,48-48s48,21.528,48,48S226.472,132,200,132z"></path><circle style="fill:#EFD01B;" cx="64" cy="236" r="40"></circle><circle style="fill:#EFD01B;" cx="200" cy="84" r="32"></circle></g><path style="fill:#EFA022;" d="M360,452v-96c0-4.408-3.584-8-8-8h-40c-4.424,0-8-3.584-8-8v-48c0-8.824-7.184-16-16-16 c-8.824,0-16,7.176-16,16v48c0,4.416-3.576,8-8,8h-32v112h120C356.416,460,360,456.416,360,452z"></path><g><rect x="192" y="348" style="fill:#95D8C6;" width="24" height="112"></rect><path style="fill:#95D8C6;" d="M176,348H16v112h160V348z M160,444h-16v-16h16V444z"></path></g><g><path style="fill:#EFD01B;" d="M424,280.824c-4.728,7.848-11.336,14.448-19.184,19.176c7.848,4.728,14.456,11.336,19.184,19.176 c4.728-7.848,11.336-14.448,19.176-19.176C435.336,295.272,428.728,288.664,424,280.824z"></path><path style="fill:#EFD01B;" d="M400,68c-35.288,0-64,28.712-64,64s28.712,64,64,64s64-28.712,64-64S435.288,68,400,68z M400,180 c-26.472,0-48-21.528-48-48s21.528-48,48-48s48,21.528,48,48S426.472,180,400,180z"></path><circle style="fill:#EFD01B;" cx="400" cy="132" r="32"></circle></g><path d="M352,332h-32v-40c0-17.648-14.352-32-32-32s-32,14.352-32,32v40h-32h-40H8c-4.424,0-8,3.584-8,8v128c0,4.424,3.576,8,8,8 h176h40h128c13.232,0,24-10.768,24-24v-96C376,342.768,365.232,332,352,332z M16,348h160v112H16V348z M216,460h-24V348h24V460z M360,452c0,4.416-3.584,8-8,8H232V348h32c4.424,0,8-3.584,8-8v-48c0-8.824,7.176-16,16-16c8.816,0,16,7.176,16,16v48 c0,4.416,3.576,8,8,8h40c4.416,0,8,3.592,8,8V452z"></path><rect x="144" y="428" width="16" height="16"></rect><path d="M472,292c-22.056,0-40-17.944-40-40c0-4.416-3.576-8-8-8s-8,3.584-8,8c0,22.056-17.944,40-40,40c-4.424,0-8,3.584-8,8 s3.576,8,8,8c22.056,0,40,17.944,40,40c0,4.416,3.576,8,8,8s8-3.584,8-8c0-22.056,17.944-40,40-40c4.424,0,8-3.584,8-8 S476.424,292,472,292z M424,319.176c-4.728-7.848-11.336-14.448-19.184-19.176c7.848-4.728,14.456-11.336,19.184-19.176 c4.728,7.848,11.336,14.448,19.176,19.176C435.336,304.728,428.728,311.336,424,319.176z"></path><path d="M200,164c44.112,0,80-35.888,80-80S244.112,4,200,4s-80,35.888-80,80S155.888,164,200,164z M200,20 c35.288,0,64,28.712,64,64s-28.712,64-64,64s-64-28.712-64-64S164.712,20,200,20z"></path><path d="M200,132c26.472,0,48-21.528,48-48s-21.528-48-48-48s-48,21.528-48,48S173.528,132,200,132z M200,52 c17.648,0,32,14.352,32,32s-14.352,32-32,32s-32-14.352-32-32S182.352,52,200,52z"></path><path d="M64,292c30.872,0,56-25.12,56-56s-25.128-56-56-56S8,205.12,8,236S33.128,292,64,292z M64,196c22.056,0,40,17.944,40,40 s-17.944,40-40,40s-40-17.944-40-40S41.944,196,64,196z"></path><path d="M400,212c44.112,0,80-35.888,80-80s-35.888-80-80-80s-80,35.888-80,80S355.888,212,400,212z M400,68 c35.288,0,64,28.712,64,64s-28.712,64-64,64s-64-28.712-64-64S364.712,68,400,68z"></path><path d="M400,180c26.472,0,48-21.528,48-48s-21.528-48-48-48s-48,21.528-48,48S373.528,180,400,180z M400,100 c17.648,0,32,14.352,32,32s-14.352,32-32,32s-32-14.352-32-32S382.352,100,400,100z"></path><path d="M192,316h16c0-39.696-32.296-72-72-72v16C166.872,260,192,285.12,192,316z"></path><path d="M240,268c0-30.88,25.128-56,56-56v-16c-39.704,0-72,32.304-72,72H240z"></path><path d="M184,244h16c0-48.52-39.48-88-88-88v16C151.704,172,184,204.304,184,244z"></path><rect x="24" y="60" width="16" height="16"></rect><rect x="304" y="20" width="16" height="16"></rect><rect x="64" y="132" width="16" height="16"></rect><rect x="424" y="396" width="16" height="16"></rect><rect x="336" y="228" width="16" height="16"></rect><rect x="232" y="172" width="16" height="16"></rect><rect x="288" y="140" width="16" height="16"></rect><rect x="128" y="284" width="16" height="16"></rect></svg>